# xmcd
# Copyright (C) 1995-1998 Ti Kan
#
# Track frame offsets:
#       150
#       20462
#       42405
#       67805
#       86272
#       108342
#       124917
#       146067
#       153880
#       169342
#       188472
#
# Disc length: 2697 seconds
#
# Revision: 0
# Processed by: cddbd v1.5.2PL0 Copyright (c) Steve Scherf et al.
# Submitted via: CD-Import v1.0
#
DISCID=870a870b
DTITLE=Purtag - Greetings From The Roof Of The World
DYEAR=94
DGENRE=
TTITLE0=Just Another Crazy Day
TTITLE1=Best In Me
TTITLE2=One More Try
TTITLE3=Memories
TTITLE4=Lay Down Your Pride
TTITLE5=Run
TTITLE6=Without You
TTITLE7=Two Hands One Foot Blues
TTITLE8=Waste Of Time
TTITLE9=High In The Sky
TTITLE10=Break Free
EXTD=
EXTT0=
EXTT1=
EXTT2=
EXTT3=
EXTT4=
EXTT5=
EXTT6=
EXTT7=
EXTT8=
EXTT9=
EXTT10=
PLAYORDER=
